<?xml version="1.0" encoding="UTF-8" standalone="no"?>
<!-- Created with Inkscape (http://www.inkscape.org/) -->

<svg
   xmlns:dc="http://purl.org/dc/elements/1.1/"
   xmlns:cc="http://creativecommons.org/ns#"
   xmlns:rdf="http://www.w3.org/1999/02/22-rdf-syntax-ns#"
   xmlns:svg="http://www.w3.org/2000/svg"
   xmlns="http://www.w3.org/2000/svg"
   xmlns:sodipodi="http://sodipodi.sourceforge.net/DTD/sodipodi-0.dtd"
   xmlns:inkscape="http://www.inkscape.org/namespaces/inkscape"
   width="356.43387"
   height="382.0961"
   id="svg2"
   version="1.1"
   inkscape:version="0.48.3.1 r9886"
   sodipodi:docname="coffee-mug-logo.svg"
   inkscape:export-filename="/home/beefsack/Development/coffee-script-project/img/coffee-mug-logo.png"
   inkscape:export-xdpi="60.095295"
   inkscape:export-ydpi="60.095295">
  <defs
     id="defs4">
    <clipPath
       id="clipPath3094"
       clipPathUnits="userSpaceOnUse">
      <path
         id="path3096"
         d="m 0,595.275 841.89,0 L 841.89,0 0,0 0,595.275 z"
         inkscape:connector-curvature="0" />
    </clipPath>
    <linearGradient
       id="linearGradient3082"
       spreadMethod="pad"
       gradientTransform="matrix(-186.49995,1.53e-5,1.53e-5,186.49995,470.76074,402.5249)"
       gradientUnits="userSpaceOnUse"
       y2="0"
       x2="1"
       y1="0"
       x1="0">
      <stop
         id="stop3084"
         offset="0"
         style="stop-opacity:1;stop-color:#ffffff" />
      <stop
         id="stop3086"
         offset="1"
         style="stop-opacity:1;stop-color:#d2d4d5" />
    </linearGradient>
    <clipPath
       id="clipPath3074"
       clipPathUnits="userSpaceOnUse">
      <path
         id="path3076"
         d="m 290.361,402.525 c 0,-11.166 41.035,-20.219 91.656,-20.219 l 0,0 c 50.621,0 91.657,9.053 91.657,20.219 l 0,0 c 0,11.166 -41.036,20.218 -91.657,20.218 l 0,0 c -50.621,0 -91.656,-9.052 -91.656,-20.218"
         inkscape:connector-curvature="0" />
    </clipPath>
    <clipPath
       id="clipPath3050"
       clipPathUnits="userSpaceOnUse">
      <path
         id="path3052"
         d="m 0,595.275 841.89,0 L 841.89,0 0,0 0,595.275 z"
         inkscape:connector-curvature="0" />
    </clipPath>
    <linearGradient
       id="linearGradient3038"
       spreadMethod="pad"
       gradientTransform="matrix(18.050064,1.1279449,1.1279449,-18.050064,276.58984,290.7666)"
       gradientUnits="userSpaceOnUse"
       y2="0"
       x2="1"
       y1="0"
       x1="0">
      <stop
         id="stop3040"
         offset="0"
         style="stop-opacity:1;stop-color:#ffffff" />
      <stop
         id="stop3042"
         offset="1"
         style="stop-opacity:1;stop-color:#ee3338" />
    </linearGradient>
    <clipPath
       id="clipPath3030"
       clipPathUnits="userSpaceOnUse">
      <path
         id="path3032"
         d="m 290.018,248.802 c 3.233,-19.478 28.12,-58.462 28.86,-60.682 l 0,0 c 0.74,-2.22 1.85,-6.29 3.701,-5.55 l 0,0 c 0,6.291 -16.651,48.842 -19.611,65.123 l 0,0 c -2.961,16.28 1.774,100.198 5.105,140.529 l 0,0 c -10.073,1.22 -23.818,8.745 -27.518,13.924 l 0,0 c -3.728,-31.919 1.611,-106.038 9.463,-153.344"
         inkscape:connector-curvature="0" />
    </clipPath>
    <clipPath
       id="clipPath3018"
       clipPathUnits="userSpaceOnUse">
      <path
         id="path3020"
         d="m 0,595.275 841.89,0 L 841.89,0 0,0 0,595.275 z"
         inkscape:connector-curvature="0" />
    </clipPath>
  </defs>
  <sodipodi:namedview
     id="base"
     pagecolor="#ffffff"
     bordercolor="#666666"
     borderopacity="1.0"
     inkscape:pageopacity="0.0"
     inkscape:pageshadow="2"
     inkscape:zoom="1.4"
     inkscape:cx="187.03754"
     inkscape:cy="211.47931"
     inkscape:document-units="px"
     inkscape:current-layer="g3012"
     showgrid="false"
     inkscape:window-width="1680"
     inkscape:window-height="1018"
     inkscape:window-x="1680"
     inkscape:window-y="0"
     inkscape:window-maximized="1"
     fit-margin-top="0"
     fit-margin-left="0"
     fit-margin-right="0"
     fit-margin-bottom="0" />
  <metadata
     id="metadata7">
    <rdf:RDF>
      <cc:Work
         rdf:about="">
        <dc:format>image/svg+xml</dc:format>
        <dc:type
           rdf:resource="http://purl.org/dc/dcmitype/StillImage" />
        <dc:title></dc:title>
      </cc:Work>
    </rdf:RDF>
  </metadata>
  <g
     inkscape:label="Layer 1"
     inkscape:groupmode="layer"
     id="layer1"
     transform="translate(-198.92588,-329.38674)">
    <g
       transform="matrix(1.25,0,0,-1.25,-150.25031,860.62411)"
       inkscape:label="coffee mug"
       id="g3012">
      <g
         id="g3014">
        <g
           clip-path="url(#clipPath3018)"
           id="g3016">
          <g
             transform="translate(481.4805,331.3906)"
             id="g3022">
            <path
               id="path3024"
               style="fill:#ee3338;fill-opacity:1;fill-rule:nonzero;stroke:none"
               d="m 0,0 c 0.892,-19.038 -4.463,-63.063 -7.14,-72.285 -2.676,-9.222 -5.634,-17.778 -3.569,-20.822 5.651,-8.33 31.83,10.41 49.38,31.233 17.55,20.823 27.962,36.887 28.557,62.469 C 67.844,27.089 44.322,35.994 35.993,35.994 27.664,35.994 12.196,25.778 8.924,8.329 8.031,3.57 2.38,-0.595 0,0 m -99.7,48.027 c 22.941,0.37 88.74,2.827 102.077,23.107 C 2.805,68.6 1.349,55.657 4.951,52.054 8.554,48.452 17.56,48.152 23.863,50.553 c 6.304,2.402 20.714,3.903 31.522,-0.3 C 68.65,45.094 83.304,27.138 83.003,0.12 82.471,-47.703 44.43,-81.003 26.865,-96.245 c -36.324,-31.522 -54.036,-33.023 -60.94,-39.026 -3.538,-3.078 -2.702,-11.708 -12.008,-18.313 -7.002,-4.969 -29.72,-9.006 -51.034,-9.006 -21.314,0 -52.536,1.501 -65.444,16.812 -0.6,8.405 -18.012,31.22 -26.418,57.038 -8.406,25.817 -15.01,112.275 -12.325,159.874 14.393,-19.946 90.162,-23.292 101.604,-23.107"
               inkscape:connector-curvature="0" />
          </g>
        </g>
      </g>
      <g
         id="g3026">
        <g
           clip-path="url(#clipPath3030)"
           id="g3028">
          <g
             id="g3034">
            <g
               id="g3036">
              <path
                 id="path3044"
                 style="fill:url(#linearGradient3038);stroke:none"
                 d="m 290.018,248.802 c 3.233,-19.478 28.12,-58.462 28.86,-60.682 l 0,0 c 0.74,-2.22 1.85,-6.29 3.701,-5.55 l 0,0 c 0,6.291 -16.651,48.842 -19.611,65.123 l 0,0 c -2.961,16.28 1.774,100.198 5.105,140.529 l 0,0 c -10.073,1.22 -23.818,8.745 -27.518,13.924 l 0,0 c -3.728,-31.919 1.611,-106.038 9.463,-153.344"
                 inkscape:connector-curvature="0" />
            </g>
          </g>
        </g>
      </g>
      <g
         id="g3046">
        <g
           clip-path="url(#clipPath3050)"
           id="g3048">
          <g
             transform="translate(481.4805,331.3906)"
             id="g3054">
            <path
               id="path3056"
               style="fill:#e23237;fill-opacity:1;fill-rule:nonzero;stroke:none"
               d="m 0,0 c 0.892,-19.038 -4.463,-63.063 -7.14,-72.285 -2.676,-9.222 -5.634,-17.778 -3.569,-20.822 5.651,-8.33 31.83,10.41 49.38,31.233 17.55,20.823 27.962,36.887 28.557,62.469 C 67.844,27.089 44.322,35.994 35.993,35.994 27.664,35.994 12.196,25.778 8.924,8.329 8.031,3.57 2.38,-0.595 0,0 m -77.813,-155.841 c -2.102,2.803 -31.875,5.954 -50.44,7.706 28.023,-1.4 35.728,10.859 60.597,24.519 24.87,13.66 39.582,72.857 37.13,100.529 -2.453,27.672 -4.554,54.643 4.553,79.512 10.859,2.102 25.92,8.407 28.35,14.709 C 2.805,68.6 1.349,55.657 4.951,52.054 8.554,48.452 17.56,48.152 23.863,50.553 c 6.304,2.402 20.714,3.903 31.522,-0.3 C 68.65,45.094 83.304,27.138 83.003,0.12 82.471,-47.703 44.43,-81.003 26.865,-96.245 c -36.324,-31.522 -54.036,-33.023 -60.94,-39.026 -3.538,-3.078 -2.702,-11.708 -12.008,-18.313 -7.002,-4.969 -29.72,-9.006 -51.034,-9.006 9.769,0.608 21.405,3.946 19.304,6.749"
               inkscape:connector-curvature="0" />
          </g>
          <g
             transform="translate(466.5146,365.9937)"
             id="g3058">
            <path
               id="path3060"
               style="fill:#ef413b;fill-opacity:1;fill-rule:nonzero;stroke:none"
               d="M 0,0 C 4.25,-5.249 4,-30.246 14.748,-35.495 15.998,-55.242 7.249,-121.482 1,-126.981 c -2,9.998 0.75,22.746 0.75,34.245 C 1.75,-81.237 -0.5,-31.495 0,0"
               inkscape:connector-curvature="0" />
          </g>
          <g
             transform="translate(487.333,379.9419)"
             id="g3062">
            <path
               id="path3064"
               style="fill:#ef413b;fill-opacity:1;fill-rule:nonzero;stroke:none"
               d="m 0,0 c -2.666,2.667 -3.999,4.333 -7.666,-0.667 -3.667,-5 -6.667,-23.666 -2.667,-30.333 4,-6.667 2.667,-14.333 5.667,-13.333 3,1 1.333,12.666 7.333,19.333 6,6.667 14.956,16.898 30.333,15 15.377,-1.898 33.666,-18.333 31,-42.667 -2.666,-24.333 -24.066,-70.94 -52.333,-87 C -3,-148 -12.334,-146 -15,-148 c -2.666,-2 -19,-13.996 -19,-26.333 C -34,-177 -8.333,-163 0.667,-157 9.667,-151 53,-115.333 66,-80.333 79,-45.333 61.958,-4.133 39.667,3 23.001,8.333 14.333,-7.667 0,0"
               inkscape:connector-curvature="0" />
          </g>
          <g
             transform="translate(483.8574,402.5249)"
             id="g3066">
            <path
               id="path3068"
               style="fill:#f2f2f3;fill-opacity:1;fill-rule:nonzero;stroke:none"
               d="m 0,0 c 0,-12.407 -45.595,-22.465 -101.84,-22.465 -56.245,0 -101.841,10.058 -101.841,22.465 0,12.407 45.596,22.465 101.841,22.465 C -45.595,22.465 0,12.407 0,0"
               inkscape:connector-curvature="0" />
          </g>
        </g>
      </g>
      <g
         id="g3070">
        <g
           clip-path="url(#clipPath3074)"
           id="g3072">
          <g
             id="g3078">
            <g
               id="g3080">
              <path
                 id="path3088"
                 style="fill:url(#linearGradient3082);stroke:none"
                 d="m 290.361,402.525 c 0,-11.166 41.035,-20.219 91.656,-20.219 l 0,0 c 50.621,0 91.657,9.053 91.657,20.219 l 0,0 c 0,11.166 -41.036,20.218 -91.657,20.218 l 0,0 c -50.621,0 -91.656,-9.052 -91.656,-20.218"
                 inkscape:connector-curvature="0" />
            </g>
          </g>
        </g>
      </g>
      <g
         id="g3090">
        <g
           clip-path="url(#clipPath3094)"
           id="g3092">
          <g
             transform="translate(488.8965,366.958)"
             id="g3098">
            <path
               id="path3100"
               style="fill:#fee8de;fill-opacity:1;fill-rule:nonzero;stroke:none"
               d="m 0,0 c 2.428,8.476 -11.614,1.296 -7.021,-0.713 0.666,-0.292 2.601,0.634 3.555,0.54 1.272,-0.126 1.333,-1.464 3.028,-1.084 C -0.255,-0.805 -0.11,-0.386 0,0"
               inkscape:connector-curvature="0" />
          </g>
          <g
             transform="translate(520.4502,375.2734)"
             id="g3102">
            <path
               id="path3104"
               style="fill:#fee8de;fill-opacity:1;fill-rule:nonzero;stroke:none"
               d="M 0,0 C 5.777,-0.56 11.37,-2.616 15.26,-7.23 9.813,-6.856 4.815,-2.997 -0.619,-2.109 -6.875,-1.087 -13.012,-2.5 -18.959,-3.766 -12.701,-1.357 -6.777,0.656 0,0"
               inkscape:connector-curvature="0" />
          </g>
          <g
             transform="translate(464.8525,224.25)"
             id="g3106">
            <path
               id="path3108"
               style="fill:#fee8de;fill-opacity:1;fill-rule:nonzero;stroke:none"
               d="M 0,0 C -1.237,-1.452 -1.601,-3.792 0.044,-4.937 0.961,-5.576 3.063,-5.042 4.031,-4.743 3.328,-2.771 2.937,-0.805 2.522,1.248 1.55,1.284 0.653,0.766 0,0"
               inkscape:connector-curvature="0" />
          </g>
        </g>
      </g>
      <flowRoot
         xml:space="preserve"
         id="flowRoot3381"
         style="font-size:48px;font-style:normal;font-weight:normal;text-align:center;line-height:125%;letter-spacing:0px;word-spacing:0px;text-anchor:middle;fill:#333333;fill-opacity:1;stroke:none;font-family:Sans"
         transform="matrix(0.8,0,0,-0.8,75.628817,668.4993)"><flowRegion
           id="flowRegion3383"><rect
             id="rect3385"
             width="468.57144"
             height="112.14286"
             x="150"
             y="619.50507"
             style="font-size:48px;text-align:center;text-anchor:middle;fill:#333333" /></flowRegion><flowPara
           id="flowPara3387"
           style="font-style:italic;font-variant:normal;font-weight:bold;font-stretch:normal;font-family:FreeSerif;-inkscape-font-specification:FreeSerif Bold Italic">coffee-mug</flowPara></flowRoot>    </g>
  </g>
</svg>
